<?xml version="1.0" encoding="UTF-8"?>
<svg width="21px" height="17px" viewBox="0 0 21 17" version="1.1" xmlns="http://www.w3.org/2000/svg" xmlns:xlink="http://www.w3.org/1999/xlink">
    <!-- Generator: sketchtool 51 (57462) - http://www.bohemiancoding.com/sketch -->
    <title>5CFE753F-0911-4191-B7BB-1B4BDCFA63D9</title>
    <desc>Created with sketchtool.</desc>
    <defs></defs>
    <g id="CATALONIA_CANVIS-Copy" stroke="none" stroke-width="1" fill="none" fill-rule="evenodd">
        <g id="HOME_login" transform="translate(-302.000000, -166.000000)" fill-rule="nonzero">
            <g id="gmail" transform="translate(302.000000, 166.570000)">
                <g id="Group" transform="translate(1.353516, 0.000000)" fill="#F2F2F2">
                    <polygon id="Shape" points="18.5379551 2.57610938 17.1973594 16.0378066 1.09560937 16.0378066 0.0155449219 2.83664063 9.14648438 7.94891016"></polygon>
                    <polygon id="Shape" points="18.0832148 0.0403183594 9.14648437 8.43523242 0.209753906 0.0403183594 9.14648437 0.0403183594"></polygon>
                </g>
                <path d="M2.449125,3.91670508 L2.449125,16.0378066 L0.990076172,16.0378066 C0.443460938,16.0378066 0,15.5943867 0,15.0477305 L0,2.13145898 L1.59960938,2.17505859 L2.449125,3.91670508 Z" id="Shape" fill="#F14336"></path>
                <path d="M21,2.13145898 L21,15.0477715 C21,15.5943867 20.5565391,16.0378477 20.0093906,16.0378477 L18.550875,16.0378477 L18.550875,3.91670508 L19.3585547,2.00845312 L21,2.13145898 Z" id="Shape" fill="#F14336"></path>
                <path d="M21,1.03039453 L21,2.13145898 L18.550875,3.91670508 L10.5,9.78472852 L2.449125,3.91670508 L0,2.13145898 L0,1.03039453 C0,0.483779297 0.443460937,0.0403183594 0.990076172,0.0403183594 L1.56326953,0.0403183594 L10.5,6.55396875 L19.4367305,0.0403183594 L20.0093906,0.0403183594 C20.5565391,0.0403183594 21,0.483738281 21,1.03039453 Z" id="Shape" fill="#F14336"></path>
                <polygon id="Shape" fill="#F14336" points="2.449125 3.91670508 0 3.53698242 0 2.13145898"></polygon>
            </g>
        </g>
    </g>
</svg>